<svg width="71" height="71" viewBox="0 0 71 71" fill="none" xmlns="http://www.w3.org/2000/svg">
<path fill-rule="evenodd" clip-rule="evenodd" d="M40.3669 18.8593C35.6847 17.8798 31.0073 17.8516 26.3257 18.8532C25.4845 21.8021 23.4373 25.9034 18.0124 32.3238C10.7756 40.8884 4.71324 63.4026 23.5296 68.4634L43.3702 68.4558C64.5043 66.8374 61.4789 45.1726 50.9181 31.846C45.9922 25.6294 42.3136 22.105 40.3669 18.8593ZM40.3896 39.6368C40.3896 38.4411 40.0124 37.4541 39.2593 36.6749C38.5056 35.8949 37.3622 35.5053 35.8292 35.5053H33.0235V43.7292H35.7122C38.8305 43.7292 40.3896 42.3648 40.3896 39.6368ZM24.0899 49.2966H27.4498V48.3426H24.0899V43.7113H27.4498V31.0234H35.9462C38.9344 31.0234 41.3568 31.7441 43.214 33.1863C45.0718 34.6284 46.0011 36.7527 46.0011 39.5584C46.0011 42.2871 45.1434 44.4107 43.4287 45.9313C41.714 47.4512 39.1554 48.2111 35.7514 48.2111H33.0235V49.2966H37.9934V53.928H33.0235V57.6039H27.4498V53.928H24.0899V49.2966Z" fill="white"/>
<path fill-rule="evenodd" clip-rule="evenodd" d="M27.4115 10.8948C31.5017 10.1906 35.6718 10.2113 39.7586 10.9155L41.0782 5.01967C41.98 1.10083 35.1521 4.44706 32.8482 2.68072C30.335 0.755375 24.625 1.91376 25.3106 4.88885L27.4115 10.8948Z" fill="white"/>
<path fill-rule="evenodd" clip-rule="evenodd" d="M26.4772 16.3319C26.0256 16.8351 25.3806 17.1249 24.695 17.1249C24.0218 17.1249 23.3892 16.8427 22.9397 16.3588C22.3649 16.6149 21.9526 17.3039 21.6876 17.8291C21.4391 18.3254 21.2029 18.4425 20.6529 18.291C20.1257 18.1465 19.2246 17.6005 18.8673 17.1593C18.7187 16.9521 18.6271 16.7174 18.6181 16.4627C18.5693 15.1652 20.4051 14.3088 21.788 13.9096C21.6703 13.8752 21.5437 13.8477 21.4129 13.8401C20.8354 13.7988 20.2771 13.9364 19.6858 13.8752C19.0009 13.8057 18.7586 13.5922 18.6732 12.8956C18.6092 12.3697 18.6705 11.5361 18.8033 11.024C18.9678 10.4038 19.6011 10.3211 20.1484 10.3961C21.6359 10.6171 23.0622 11.3557 24.136 12.4041C24.3191 12.3621 24.5064 12.3429 24.695 12.3429C25.5197 12.3429 26.2755 12.7649 26.7112 13.4394C31.3322 12.6533 36.0116 12.7841 40.5989 13.7368C41.354 13.8883 41.84 14.6337 41.683 15.3861C41.5282 16.1447 40.784 16.6279 40.031 16.4764C35.5236 15.5375 31.0011 15.4625 26.4772 16.3319Z" fill="white"/>
</svg>
