<svg width="71" height="71" viewBox="0 0 71 71" fill="none" xmlns="http://www.w3.org/2000/svg">
<path d="M38.2962 47.8831C44.9641 47.8831 50.3869 42.4618 50.3869 35.7944C50.3869 29.126 44.9641 23.6992 38.2962 23.6992C31.6288 23.6992 26.207 29.126 26.207 35.7944C26.207 42.4618 31.6288 47.8831 38.2962 47.8831Z" fill="white"/>
<path d="M38.2966 55.9989C49.4592 55.9989 58.5038 46.9482 58.5038 35.7916C58.5038 24.6274 49.4592 15.584 38.2966 15.584C27.1339 15.584 18.0898 24.6274 18.0898 35.7916C18.0898 46.9482 27.1339 55.9989 38.2966 55.9989ZM38.2966 18.6749C47.7322 18.6749 55.4061 26.3545 55.4061 35.7916C55.4061 45.2263 47.7322 52.9008 38.2966 52.9008C28.8614 52.9008 21.1875 45.2263 21.1875 35.7916C21.1875 26.3545 28.8614 18.6749 38.2966 18.6749Z" fill="white"/>
<path d="M69.7365 57.8775L68.5556 12.5242C68.5556 11.5503 67.7612 10.7559 66.7888 10.7559C66.5237 10.7559 66.2814 10.8135 66.0576 10.9175V10.9002C66.0576 10.9002 66.0117 10.9338 65.948 10.9751C65.7762 11.0668 65.6262 11.1877 65.4926 11.3259C64.1975 12.3855 60.0709 16.7145 59.7252 22.5696C59.2016 31.4995 63.5418 35.1141 65.0159 38.4243L63.835 57.8775C63.835 58.8555 65.8098 59.6442 66.7827 59.6442C67.7612 59.6498 69.7365 58.8555 69.7365 57.8775Z" fill="white"/>
<path d="M4.23876 30.2468L7.28948 31.7713C7.63978 31.9447 8.02067 32.0711 8.424 32.1701L7.24357 58.6985C7.24357 59.5148 9.21839 60.1823 10.1908 60.1823C11.1698 60.1823 13.1385 59.5204 13.1385 58.6985L11.9581 32.0314C12.3721 31.8989 12.7765 31.7438 13.1268 31.524L15.3897 30.1494C17.0193 29.1531 18.2512 26.9646 18.2512 25.0545V13.1653C18.2512 12.1929 17.4558 11.3984 16.4768 11.3984C15.5039 11.3984 14.7095 12.1929 14.7095 13.1653V23.8736H13.7315V13.1653C13.7315 12.1929 12.9366 11.3984 11.9581 11.3984C10.9852 11.3984 10.1908 12.1929 10.1908 13.1653V23.8736H9.20668V13.1653C9.20668 12.1929 8.41224 11.3984 7.43986 11.3984C6.46086 11.3984 5.67106 12.1929 5.67106 13.1653V23.8736H4.68642V13.5518C4.68642 12.5728 3.89816 11.7783 2.91916 11.7783C1.94678 11.7783 1.15234 12.5728 1.15234 13.5518V25.2487C1.15234 27.2179 2.48166 29.3652 4.23876 30.2468Z" fill="white"/>
</svg>
