<svg width="71" height="71" viewBox="0 0 71 71" fill="none" xmlns="http://www.w3.org/2000/svg">
<path fill-rule="evenodd" clip-rule="evenodd" d="M38.8541 66.4484L55.9309 45.7577C60.1086 40.3492 62.2301 35.7621 62.2301 28.6437C62.2301 13.782 50.2396 1.73633 35.4467 1.73633C20.6566 1.73633 8.66602 13.782 8.66602 28.6437C8.66602 35.7786 10.7951 40.3541 14.9769 45.7722L32.0414 66.4484C34.3123 69.1661 36.5825 69.111 38.8541 66.4484Z" fill="white"/>
<path fill-rule="evenodd" clip-rule="evenodd" d="M35.4478 12.6074C44.2623 12.6074 51.4068 19.785 51.4068 28.6407C51.4068 37.4951 44.2623 44.6725 35.4478 44.6725C26.6348 44.6725 19.4902 37.4951 19.4902 28.6407C19.4902 19.785 26.6348 12.6074 35.4478 12.6074Z" fill="#E52729"/>
<path fill-rule="evenodd" clip-rule="evenodd" d="M35.6338 19.5371C40.6953 19.5371 44.8014 23.6411 44.8014 28.7033C44.8014 33.7662 40.6953 37.8702 35.6338 37.8702C30.5709 37.8702 26.4648 33.7662 26.4648 28.7033C26.4648 23.6411 30.5709 19.5371 35.6338 19.5371Z" fill="white"/>
</svg>
