<svg width="71" height="71" viewBox="0 0 71 71" fill="none" xmlns="http://www.w3.org/2000/svg">
<path d="M53 40C45.8317 40 40 45.8316 40 52.9998C40 60.1679 45.8317 65.9995 53 66C60.1683 65.9995 66 60.1679 66 52.9998C66 45.8316 60.1683 40 53 40ZM53 56.7495C50.9286 56.7495 49.2497 55.0707 49.2497 52.9998C49.2497 50.9289 50.9291 49.25 53 49.25C55.0714 49.25 56.7503 50.9289 56.7503 52.9998C56.7498 55.0707 55.0705 56.7495 53 56.7495Z" fill="white"/>
<path d="M19 32C26.1683 31.9995 32 26.1679 32 18.9998C32 15.5276 30.6479 12.2628 28.1923 9.80767C25.737 7.35203 22.4722 6 19 6C18.9995 6 18.9995 6 18.9995 6C15.5273 6 12.2625 7.35203 9.80728 9.80767C7.35206 12.2628 6 15.5276 6 18.9998C6 26.1679 11.8317 31.9995 19 32ZM19 15.25C21.0709 15.25 22.7498 16.9289 22.7498 18.9998C22.7498 21.0707 21.0709 22.75 19 22.75C16.9291 22.75 15.2502 21.0707 15.2502 18.9998C15.2502 16.9289 16.9291 15.25 19 15.25Z" fill="white"/>
<path d="M66 11.5234C66 10.048 65.4255 8.66098 64.3822 7.61774C63.3389 6.57449 61.9518 6 60.4764 6C59.0014 6 57.6143 6.57404 56.5701 7.61774L7.61506 56.5705C5.46165 58.7238 5.46165 62.228 7.61506 64.3818C8.65836 65.425 10.0454 66 11.5213 66C12.9968 66 14.3839 65.4255 15.4272 64.3818L64.3822 15.429C65.4255 14.3858 66 12.9987 66 11.5234Z" fill="white"/>
</svg>
