<svg width="71" height="71" viewBox="0 0 71 71" fill="none" xmlns="http://www.w3.org/2000/svg">
<path d="M53.1291 36.0046C53.1291 45.8681 45.1331 53.8629 35.2709 53.8629C25.4081 53.8629 17.4121 45.8681 17.4121 36.0046C17.4121 26.1425 25.4081 18.1465 35.2709 18.1465C45.1331 18.1465 53.1291 26.1425 53.1291 36.0046Z" fill="white"/>
<path d="M63.7674 18.6464C57.716 8.72573 47.0023 2.65234 35.2747 2.65234C20.4805 2.65234 7.91648 12.3244 3.54814 25.6752C3.15509 26.8743 3.4745 28.1954 4.38244 29.073L4.43891 29.1287C6.20249 30.8338 9.08599 30.0464 9.84732 27.7142C13.3394 17.0143 23.4094 9.26612 35.2747 9.26612C44.0486 9.26612 52.1279 13.5099 57.0985 20.5422L52.9491 21.7261C52.1334 21.9588 51.8759 22.9872 52.4858 23.5778L60.7805 31.6083L63.9594 34.6872C64.57 35.2778 65.5894 34.9867 65.7959 34.1634L66.4354 31.6083L69.6748 18.6788C69.6969 18.5893 69.7079 18.5012 69.7086 18.4145V18.411C69.7106 17.7047 69.0278 17.1443 68.3029 17.3515L63.7674 18.6464Z" fill="white"/>
<path d="M66.1678 42.9574C67.0757 43.8344 67.3944 45.156 67.0021 46.3551C62.6317 59.7059 50.0588 69.3781 35.2756 69.3781C23.8137 69.3781 13.3299 63.5882 7.21859 54.0702C6.95495 53.6607 6.4614 53.4645 5.99332 53.5981L2.23765 54.6684C1.42194 54.9011 0.659244 54.1632 0.86644 53.3399L4.11552 40.4221L4.7536 37.8669C4.95942 37.0429 5.98023 36.7518 6.59012 37.3431L9.76969 40.4221L18.0534 48.4416C18.6626 49.0315 18.4052 50.0606 17.5894 50.2933L13.4401 51.4779C18.4114 58.5102 26.4907 62.7643 35.2756 62.7643C47.1312 62.7643 57.2081 55.016 60.7022 44.3147C61.4642 41.9833 64.3477 41.1959 66.1106 42.9009L66.1678 42.9574Z" fill="white"/>
<path d="M34.9315 20.7363C33.6264 20.7363 32.5684 21.7943 32.5684 23.0995V34.8354C32.5684 36.9775 34.3113 38.7198 36.4528 38.7198H45.9315C47.2373 38.7198 48.2947 37.6617 48.2947 36.3566C48.2947 35.0515 47.2373 33.9935 45.9315 33.9935H37.2939V23.0995C37.2939 21.7943 36.2366 20.7363 34.9315 20.7363Z" fill="#E52729"/>
</svg>
