<svg width="71" height="71" viewBox="0 0 71 71" fill="none" xmlns="http://www.w3.org/2000/svg">
<path d="M8.90529 45.8867H6.28146L3.82534 58.1326C3.51202 59.6917 5.26705 60.7045 7.59355 60.7045C9.92006 60.7045 11.6746 59.6928 11.3626 58.1326L8.90529 45.8867Z" fill="white"/>
<path d="M9.52222 42.6968C9.52222 43.7608 8.66119 44.6288 7.59021 44.6288C6.5262 44.6288 5.6582 43.7608 5.6582 42.6968C5.6582 41.6258 6.5262 40.7578 7.59021 40.7578C8.66119 40.7578 9.52222 41.6258 9.52222 42.6968Z" fill="white"/>
<path d="M68.1426 21.8053L36.4128 10.6111C35.7581 10.3796 35.2439 10.3796 34.5894 10.6111L2.85725 21.8053C2.45462 21.947 2.25 22.2366 2.25 22.6634V25.6954C2.25 26.1227 2.45462 26.413 2.85725 26.5547L35.5 38.0708L68.1427 26.5547C68.5454 26.4118 68.75 26.1233 68.75 25.6958V22.6639C68.75 22.2366 68.5452 21.947 68.1426 21.8053Z" fill="white"/>
<path d="M35.4998 40.804L34.6421 40.501L15.1582 33.627V40.5593C15.1582 51.3445 22.0182 56.2049 35.4996 56.2049C48.9804 56.2049 55.8399 51.3445 55.8399 40.5593V33.627L36.3571 40.501L35.4998 40.804Z" fill="white"/>
<path d="M8.88436 31.4136L6.30469 30.5039V39.7042H8.88436V31.4136Z" fill="white"/>
</svg>
