<svg width="40" height="24" viewBox="0 0 40 24" fill="none" xmlns="http://www.w3.org/2000/svg">
<path d="M33.1917 13.714C32.545 12.8973 32.73 12.534 33.1917 11.804C33.2 11.7957 38.5383 4.41898 39.0883 1.91732L39.0917 1.91565C39.365 1.00398 39.0917 0.333984 37.77 0.333984H33.3967C32.2833 0.333984 31.77 0.908984 31.495 1.55232C31.495 1.55232 29.2683 6.88232 26.1183 10.3373C25.1017 11.3357 24.6317 11.6557 24.0767 11.6557C23.8033 11.6557 23.3783 11.3357 23.3783 10.424V1.91565C23.3783 0.822318 23.0667 0.333984 22.145 0.333984H15.2683C14.57 0.333984 14.155 0.843985 14.155 1.31898C14.155 2.35565 15.73 2.59398 15.8933 5.51065V11.839C15.8933 13.2257 15.6417 13.4807 15.0833 13.4807C13.5967 13.4807 9.98833 8.12898 7.85 2.00398C7.41833 0.815651 6.99667 0.335651 5.875 0.335651H1.5C0.251667 0.335651 0 0.910651 0 1.55398C0 2.69065 1.48667 8.34232 6.91333 15.809C10.53 20.9057 15.6233 23.6673 20.2567 23.6673C23.0417 23.6673 23.3817 23.054 23.3817 21.999C23.3817 17.129 23.13 16.669 24.525 16.669C25.1717 16.669 26.285 16.989 28.885 19.4473C31.8567 22.3623 32.345 23.6673 34.0083 23.6673H38.3817C39.6283 23.6673 40.26 23.054 39.8967 21.844C39.065 19.299 33.445 14.064 33.1917 13.714Z" fill="white"/>
</svg>
