<svg width="26" height="40" viewBox="0 0 26 40" fill="none" xmlns="http://www.w3.org/2000/svg">
<path d="M13 18.75C8 18.75 3.9375 14.6875 3.9375 9.6875C3.9375 4.6875 8 0.625 13 0.625C18 0.625 22.0625 4.6875 22.0625 9.6875C22.0625 14.6875 18 18.75 13 18.75ZM13 7.5C11.8125 7.5 10.8125 8.5 10.8125 9.6875C10.8125 10.875 11.8125 11.875 13 11.875C14.1875 11.875 15.1875 10.875 15.1875 9.6875C15.1875 8.5 14.1875 7.5 13 7.5Z" fill="white"/>
<path d="M25.3125 22.3755C25.5625 21.5005 25.4375 20.6255 25 19.813C24.125 18.188 22.0625 17.6255 20.4375 18.5005C15.8125 21.063 10.125 21.063 5.56248 18.438C4.74998 18.0005 3.87498 17.8755 2.99998 18.1255C2.12498 18.3755 1.43748 18.938 0.999976 19.688C0.562476 20.438 0.437476 21.3755 0.687476 22.2505C0.937476 23.1255 1.49998 23.813 2.24998 24.2505C4.06248 25.313 6.06248 26.063 8.12498 26.5005L2.24998 33.813C1.31248 35.0005 1.24998 36.8755 2.12498 38.0005C2.74998 38.8755 3.74998 39.313 4.81248 39.313C5.81248 39.313 6.81248 38.8755 7.43748 38.063L12.9375 31.188L18.5 38.063C19.1875 38.8755 20.1875 39.3755 21.25 39.313C22.3125 39.2505 23.3125 38.688 23.9375 37.7505C24.75 36.563 24.625 34.938 23.625 33.7505L17.75 26.5005C19.8125 26.063 21.8125 25.313 23.6875 24.2505C24.5 23.938 25.0625 23.188 25.3125 22.3755Z" fill="white"/>
</svg>
