<svg width="151" height="36" viewBox="0 0 151 36" fill="none" xmlns="http://www.w3.org/2000/svg">
<path fill-rule="evenodd" clip-rule="evenodd" d="M25.5068 33.2325C29.2544 33.2312 32.8799 31.8892 35.7372 29.4457C38.5945 27.0022 40.498 23.6158 41.1086 19.89C41.1967 19.3869 41.3399 19.4757 41.5491 19.668C41.9162 20.1156 43.2157 21.6729 43.447 21.9171C44.842 23.4152 46.6445 24.5878 48.2854 24.5878C48.8474 24.5865 49.3951 24.4094 49.8529 24.081C50.2954 23.7237 50.632 23.2509 50.8262 22.7141C51.0204 22.1773 51.0647 21.5971 50.9542 21.0367C50.756 19.927 49.9447 18.1255 49.9447 17.3006C49.9447 16.4757 50.756 14.678 50.9542 13.5646C51.0643 13.0042 51.0198 12.4241 50.8256 11.8874C50.6315 11.3507 50.295 10.8779 49.8529 10.5203C49.3944 10.1934 48.8471 10.0164 48.2854 10.0135C46.2774 10.0135 44.0234 11.7742 42.577 13.731C42.5233 13.8062 42.4899 13.8942 42.4803 13.9863C42.4706 14.0784 42.485 14.1715 42.5219 14.2563C44.1261 17.8999 46.3471 20.4707 48.2781 20.7888C48.3745 20.8044 48.4669 20.8389 48.5501 20.8905C48.6333 20.942 48.7055 21.0095 48.7628 21.0892C48.8201 21.1689 48.8612 21.2592 48.8839 21.3549C48.9065 21.4506 48.9102 21.5499 48.8948 21.647C48.8794 21.7442 48.8451 21.8373 48.7939 21.9211C48.7428 22.0049 48.6758 22.0778 48.5967 22.1355C48.5176 22.1932 48.428 22.2346 48.333 22.2574C48.238 22.2803 48.1395 22.284 48.0431 22.2685C45.6313 21.8727 43.2378 19.2315 41.4977 15.5769C41.2884 15.2042 41.1373 14.8012 41.0498 14.3821C40.3642 10.6991 38.4123 7.37733 35.5373 5.00051C32.6622 2.62369 29.0479 1.34381 25.3292 1.38577C21.6106 1.42772 18.0256 2.78881 15.2041 5.2299C12.3826 7.67099 10.505 11.0359 9.90133 14.7335C9.8169 15.2366 9.67373 15.1478 9.46081 14.9517C9.09371 14.5041 7.79785 12.9505 7.56657 12.7027C6.17159 11.2231 4.36913 10.032 2.72819 10.032C2.1662 10.0332 1.61846 10.2103 1.16066 10.5388C0.718213 10.8961 0.381556 11.3689 0.187366 11.9057C-0.00682347 12.4425 -0.0510985 13.0227 0.0593605 13.5831C0.257595 14.6928 1.06889 16.4979 1.06889 17.3191C1.06889 18.1403 0.257595 19.9418 0.0593605 21.0552C-0.0506825 21.6156 -0.00620625 22.1956 0.187954 22.7324C0.382115 23.2691 0.718534 23.7419 1.16066 24.0995C1.61922 24.4264 2.16646 24.6033 2.72819 24.6063C4.73256 24.6063 6.99022 22.8492 8.43293 20.9072C8.48804 20.8327 8.52223 20.7446 8.53191 20.6522C8.5416 20.5598 8.52643 20.4664 8.48799 20.3819C6.88376 16.7384 4.66647 14.1638 2.73552 13.8457C2.63911 13.8302 2.54668 13.7956 2.4635 13.7441C2.38033 13.6926 2.30804 13.625 2.25077 13.5453C2.19351 13.4656 2.15238 13.3754 2.12973 13.2797C2.10709 13.184 2.10337 13.0847 2.1188 12.9875C2.13422 12.8904 2.16849 12.7972 2.21964 12.7134C2.27079 12.6296 2.33782 12.5568 2.4169 12.4991C2.49599 12.4414 2.58558 12.3999 2.68056 12.3771C2.77554 12.3543 2.87405 12.3505 2.97047 12.3661C5.38232 12.7619 7.77582 15.403 9.51588 19.0577C9.72518 19.4304 9.87624 19.8334 9.96374 20.2525C10.6487 23.9015 12.5763 27.195 15.414 29.5648C18.2516 31.9345 21.8213 33.2317 25.5068 33.2325ZM14.7471 9.95061C14.7471 6.62146 19.5634 3.40699 25.5068 3.40699C31.4502 3.40699 36.2665 6.62516 36.2665 9.95061C36.2665 13.2761 31.4465 15.9653 25.5068 15.9653C19.5671 15.9653 14.7471 13.2724 14.7471 9.95061Z" fill="#E52729"/>
<path d="M61.8962 12.946V4.36303C61.8962 4.33536 61.9017 4.30797 61.9122 4.28241C61.9228 4.25685 61.9382 4.23362 61.9577 4.21406C61.9772 4.19449 62.0003 4.17898 62.0258 4.16839C62.0513 4.1578 62.0786 4.15235 62.1061 4.15235H63.7814C63.8371 4.15235 63.8905 4.17455 63.9298 4.21406C63.9692 4.25357 63.9913 4.30716 63.9913 4.36303V7.60505C63.9907 7.64784 64.0032 7.68978 64.0269 7.72531C64.0507 7.76084 64.0847 7.78826 64.1243 7.80393C64.164 7.8196 64.2075 7.82278 64.249 7.81304C64.2905 7.8033 64.3281 7.7811 64.3567 7.7494L67.6762 4.21868C67.6954 4.19752 67.7188 4.18067 67.7449 4.16924C67.771 4.15781 67.7993 4.15206 67.8278 4.15235H69.7052C69.746 4.15261 69.7859 4.16482 69.82 4.1875C69.854 4.21018 69.8807 4.24234 69.8968 4.28003C69.9129 4.31773 69.9177 4.35932 69.9106 4.3997C69.9035 4.44008 69.8848 4.47751 69.8568 4.50738L66.3157 8.27609C66.281 8.31534 66.2619 8.366 66.2619 8.41848C66.2619 8.47096 66.281 8.52162 66.3157 8.56088L70.0084 12.8056C70.0343 12.8362 70.051 12.8736 70.0565 12.9134C70.0619 12.9532 70.0559 12.9937 70.0392 13.0302C70.0224 13.0668 69.9956 13.0977 69.9619 13.1194C69.9282 13.1411 69.889 13.1527 69.849 13.1528H67.8627C67.8324 13.153 67.8024 13.1464 67.7748 13.1336C67.7473 13.1208 67.7229 13.102 67.7034 13.0786L64.3684 9.1773C64.3405 9.14465 64.3033 9.12135 64.2619 9.11052C64.2204 9.09969 64.1766 9.10185 64.1364 9.11671C64.0962 9.13158 64.0615 9.15843 64.037 9.19367C64.0124 9.22891 63.9992 9.27084 63.9991 9.31384V12.9304C63.9991 12.9863 63.977 13.0399 63.9376 13.0794C63.8983 13.1189 63.8449 13.1411 63.7892 13.1411H62.1178C62.0627 13.1443 62.0086 13.1256 61.9672 13.0891C61.9257 13.0526 61.9002 13.0012 61.8962 12.946Z" fill="#1D1D1B"/>
<path d="M70.7409 8.66144C70.7241 8.07074 70.8276 7.48289 71.0447 6.93473C71.2618 6.38657 71.588 5.88991 72.0027 5.4759C72.8346 4.62912 73.9633 4.15302 75.1405 4.15234C76.3176 4.15166 77.4468 4.62646 78.2797 5.47228C79.1125 6.3181 79.5808 7.46566 79.5815 8.6625C79.5822 9.85935 79.1152 11.0074 78.2833 11.8542C77.4438 12.6868 76.3175 13.1528 75.1448 13.1528C73.972 13.1528 72.8458 12.6868 72.0063 11.8542C71.5928 11.4376 71.2672 10.9395 71.0497 10.3905C70.8321 9.84155 70.727 9.25317 70.7409 8.66144ZM73.3679 6.70445C72.9114 7.24847 72.6723 7.94682 72.6978 8.66144C72.6734 9.38582 72.9293 10.091 73.4107 10.6257C73.6333 10.8713 73.9036 11.0674 74.2045 11.2015C74.5055 11.3356 74.8305 11.4049 75.159 11.4049C75.4876 11.4049 75.8126 11.3356 76.1135 11.2015C76.4144 11.0674 76.6847 10.8713 76.9074 10.6257C77.3739 10.0836 77.6198 9.38128 77.5953 8.66144C77.6153 7.95316 77.3766 7.26245 76.9252 6.72257C76.6972 6.47485 76.4219 6.27704 76.1161 6.14125C75.8103 6.00546 75.4805 5.93455 75.1468 5.93285C74.8131 5.93116 74.4826 5.99871 74.1755 6.13139C73.8684 6.26406 73.5912 6.45906 73.3608 6.70445H73.3679Z" fill="#1D1D1B"/>
<path d="M89.1021 4.46023V12.8451C89.1021 12.9267 89.0731 13.0049 89.0215 13.0626C88.9698 13.1203 88.8998 13.1528 88.8268 13.1528H87.4991C87.4261 13.1528 87.356 13.1203 87.3044 13.0626C87.2528 13.0049 87.2238 12.9267 87.2238 12.8451V9.65549C87.2238 9.57286 87.1944 9.49362 87.1421 9.43519C87.0898 9.37676 87.0189 9.34393 86.945 9.34393H83.7877C83.7513 9.34393 83.7152 9.35202 83.6815 9.36772C83.6479 9.38343 83.6174 9.40644 83.5918 9.43542C83.5662 9.4644 83.546 9.49878 83.5323 9.53656C83.5187 9.57434 83.5119 9.61476 83.5124 9.65549V12.8451C83.5124 12.8858 83.5052 12.9261 83.4911 12.9637C83.477 13.0013 83.4565 13.0354 83.4305 13.064C83.4046 13.0927 83.3738 13.1152 83.34 13.1305C83.3062 13.1457 83.27 13.1533 83.2336 13.1528H81.8989C81.8625 13.1533 81.8263 13.1457 81.7925 13.1305C81.7587 13.1152 81.7279 13.0927 81.702 13.064C81.676 13.0354 81.6555 13.0013 81.6414 12.9637C81.6273 12.9261 81.6201 12.8858 81.6201 12.8451V4.46023C81.6201 4.4195 81.6273 4.37918 81.6414 4.34159C81.6555 4.30401 81.676 4.26991 81.702 4.24129C81.7279 4.21267 81.7587 4.19009 81.7925 4.17486C81.8263 4.15963 81.8625 4.15205 81.8989 4.15257H83.2231C83.2596 4.15205 83.2958 4.15963 83.3296 4.17486C83.3634 4.19009 83.3941 4.21267 83.4201 4.24129C83.446 4.26991 83.4666 4.30401 83.4806 4.34159C83.4947 4.37918 83.5019 4.4195 83.5019 4.46023V7.25648C83.5019 7.33808 83.5309 7.41634 83.5826 7.47404C83.6342 7.53174 83.7042 7.56415 83.7772 7.56415H86.9345C86.971 7.56467 87.0071 7.55709 87.041 7.54186C87.0748 7.52663 87.1055 7.50404 87.1314 7.47542C87.1574 7.4468 87.178 7.41271 87.192 7.37513C87.2061 7.33755 87.2133 7.29721 87.2133 7.25648V4.46023C87.2133 4.37864 87.2423 4.30038 87.2939 4.24268C87.3456 4.18499 87.4156 4.15257 87.4886 4.15257H88.8163C88.8534 4.15099 88.8903 4.15779 88.9249 4.17255C88.9595 4.18731 88.9911 4.20972 89.0178 4.23845C89.0445 4.26717 89.0657 4.30162 89.0802 4.33973C89.0947 4.37784 89.1021 4.41883 89.1021 4.46023Z" fill="#1D1D1B"/>
<path d="M96.6351 5.23727H96.6705V0H98.5488V5.23727H98.5984C98.8394 4.86905 99.1651 4.57223 99.5447 4.37497C99.9242 4.17771 100.345 4.08656 100.767 4.11016C101.219 4.10941 101.666 4.21918 102.071 4.43095C102.477 4.64271 102.831 4.95077 103.106 5.33119C103.744 6.14771 104.063 7.28609 104.063 8.74631C104.113 9.93523 103.785 11.1074 103.131 12.075C102.854 12.482 102.487 12.8116 102.063 13.0354C101.639 13.2592 101.17 13.3706 100.696 13.3599C100.266 13.3656 99.8406 13.2572 99.4595 13.0443C99.1107 12.8529 98.8141 12.5696 98.5984 12.2215H98.5488V17.3085H96.667V12.184H96.6315C96.3583 12.5756 95.994 12.8853 95.5741 13.0829C95.1541 13.2804 94.693 13.3591 94.2359 13.3111C93.7824 13.2644 93.3441 13.1131 92.9517 12.8677C92.5592 12.6224 92.2222 12.289 91.9642 11.8909C91.3887 10.9311 91.1043 9.80748 91.1491 8.67117C91.1056 7.53349 91.4116 6.41157 92.0209 5.47396C92.4077 4.92795 92.9378 4.51499 93.5448 4.28674C93.9012 4.1261 94.2874 4.05344 94.6742 4.07427C95.061 4.09509 95.4382 4.20886 95.7774 4.40697C96.1187 4.61167 96.4119 4.89551 96.6351 5.23727ZM93.0664 8.69371C93.0323 9.43967 93.2074 10.1796 93.5696 10.8202C93.7116 11.0711 93.9135 11.2778 94.1549 11.4196C94.3963 11.5615 94.6687 11.6333 94.9446 11.6279C95.2013 11.6217 95.4526 11.5481 95.6758 11.4137C95.8991 11.2793 96.0874 11.0883 96.224 10.8577C96.6084 10.2318 96.7946 9.49214 96.7556 8.74631C96.7974 7.98886 96.622 7.23573 96.2523 6.58603C96.1074 6.346 95.907 6.14923 95.6702 6.01441C95.4333 5.87959 95.1679 5.81119 94.8991 5.81571C94.6303 5.82023 94.3671 5.89751 94.1344 6.04022C93.9017 6.18293 93.7073 6.38634 93.5696 6.63112C93.2141 7.2498 93.039 7.96609 93.0664 8.68995V8.69371ZM102.149 8.7125C102.178 7.93001 101.984 7.1565 101.593 6.4921C101.488 6.32519 101.352 6.18234 101.194 6.07199C101.035 5.96165 100.858 5.88605 100.672 5.84966C100.356 5.77347 100.026 5.80138 99.7257 5.92963C99.4254 6.05789 99.1694 6.28036 98.9917 6.56724C98.658 7.22221 98.4832 7.95493 98.4832 8.69935C98.4832 9.44377 98.658 10.1765 98.9917 10.8314C99.1307 11.0768 99.3278 11.2794 99.5634 11.4191C99.799 11.5588 100.065 11.6308 100.335 11.6279C100.607 11.6313 100.874 11.5575 101.11 11.4141C101.345 11.2707 101.54 11.063 101.674 10.8127C102.017 10.173 102.182 9.44353 102.149 8.70874V8.7125Z" fill="#1D1D1B"/>
<path d="M109.879 4.15653C111.292 4.17113 112.377 4.61379 113.134 5.48452C113.888 6.34633 114.292 7.44341 114.269 8.571C114.274 8.76505 114.261 8.9591 114.231 9.15109H107.668C107.645 9.15106 107.622 9.15554 107.601 9.16425C107.58 9.17295 107.561 9.1857 107.545 9.20172C107.529 9.21775 107.517 9.23672 107.509 9.25749C107.5 9.27825 107.497 9.30039 107.498 9.32256C107.539 9.91283 107.809 10.4665 108.255 10.8731C108.493 11.1081 108.778 11.2939 109.093 11.4194C109.408 11.5448 109.746 11.6072 110.087 11.6028C110.453 11.6105 110.816 11.5338 111.145 11.379C111.474 11.2241 111.76 10.9956 111.979 10.7126C111.994 10.6944 112.013 10.6797 112.035 10.6695C112.056 10.6594 112.08 10.6542 112.104 10.6542H113.86C113.889 10.6547 113.917 10.662 113.941 10.6755C113.966 10.6889 113.987 10.7081 114.002 10.7313C114.017 10.7545 114.026 10.781 114.027 10.8083C114.029 10.8356 114.024 10.8629 114.012 10.8877C113.686 11.5086 113.208 12.0434 112.619 12.4455C111.871 12.937 110.98 13.1839 110.075 13.1496C109.457 13.1685 108.841 13.0634 108.267 12.8411C107.694 12.6188 107.174 12.2841 106.741 11.8581C105.914 10.9834 105.447 9.84764 105.428 8.66443C105.41 7.48122 105.84 6.33217 106.639 5.43345C107.05 5.00666 107.553 4.67137 108.113 4.45086C108.672 4.23035 109.275 4.12991 109.879 4.15653ZM109.879 5.61586C109.576 5.60502 109.275 5.65415 108.993 5.76021C108.711 5.86627 108.454 6.02699 108.24 6.23243C107.871 6.58011 107.625 7.03055 107.536 7.52029C107.532 7.5434 107.533 7.56705 107.54 7.58958C107.546 7.61211 107.558 7.63297 107.574 7.6507C107.59 7.66843 107.61 7.68259 107.632 7.69221C107.654 7.70182 107.678 7.70665 107.702 7.70635H112.04C112.064 7.70605 112.088 7.70081 112.109 7.691C112.131 7.68119 112.151 7.66702 112.166 7.64944C112.182 7.63185 112.194 7.61124 112.201 7.58898C112.208 7.56672 112.21 7.5433 112.206 7.52029C112.12 7.02501 111.87 6.56968 111.495 6.22149C111.278 6.02865 111.023 5.8791 110.746 5.78142C110.468 5.68375 110.174 5.63988 109.879 5.65235V5.61586Z" fill="#1D1D1B"/>
<path d="M121.072 4.35132V5.77531C121.072 5.82808 121.053 5.87869 121.021 5.916C120.988 5.95332 120.944 5.97428 120.898 5.97428H119.108C119.061 5.97428 119.017 5.99524 118.984 6.03256C118.952 6.06987 118.933 6.12048 118.933 6.17325V12.9538C118.933 13.0066 118.915 13.0572 118.882 13.0945C118.85 13.1318 118.805 13.1528 118.759 13.1528H117.28C117.234 13.1528 117.189 13.1318 117.157 13.0945C117.124 13.0572 117.106 13.0066 117.106 12.9538V6.17325C117.106 6.12048 117.087 6.06987 117.055 6.03256C117.022 5.99524 116.978 5.97428 116.932 5.97428H115.124C115.078 5.97428 115.034 5.95332 115.001 5.916C114.969 5.87869 114.95 5.82808 114.95 5.77531V4.35132C114.95 4.29855 114.969 4.24794 115.001 4.21062C115.034 4.17331 115.078 4.15234 115.124 4.15234H120.901C120.947 4.15337 120.99 4.17478 121.022 4.21199C121.054 4.24919 121.072 4.29922 121.072 4.35132Z" fill="#1D1D1B"/>
<path d="M122.432 12.8451V4.42897C122.431 4.39252 122.437 4.35633 122.45 4.32254C122.463 4.28876 122.482 4.25806 122.505 4.23228C122.529 4.2065 122.557 4.18615 122.589 4.17244C122.62 4.15873 122.653 4.15193 122.687 4.15246H124.123C124.191 4.15246 124.256 4.18159 124.304 4.23345C124.351 4.28531 124.378 4.35564 124.378 4.42897V7.43167C124.378 7.48743 124.393 7.54205 124.422 7.58836C124.45 7.63466 124.491 7.67048 124.539 7.69112C124.587 7.71175 124.639 7.71625 124.689 7.704C124.74 7.69175 124.785 7.66334 124.82 7.6225L127.765 4.23814C127.789 4.21106 127.817 4.1895 127.849 4.17476C127.88 4.16003 127.914 4.15243 127.949 4.15246H129.514C129.565 4.15088 129.614 4.16559 129.656 4.19469C129.699 4.2238 129.732 4.26598 129.752 4.3158C129.772 4.36563 129.778 4.42083 129.769 4.47431C129.76 4.52779 129.736 4.5771 129.701 4.61591L126.562 8.22615C126.516 8.27842 126.49 8.34823 126.49 8.42088C126.49 8.49352 126.516 8.56333 126.562 8.61561L129.848 12.6971C129.881 12.7365 129.903 12.7854 129.911 12.8379C129.918 12.8905 129.911 12.9442 129.891 12.9927C129.871 13.0411 129.838 13.082 129.797 13.1105C129.755 13.1389 129.707 13.1536 129.658 13.1527H127.981C127.944 13.1522 127.908 13.1437 127.875 13.1276C127.842 13.1115 127.812 13.0883 127.787 13.0593L124.835 9.32831C124.8 9.28506 124.755 9.25425 124.704 9.24005C124.653 9.22586 124.6 9.22898 124.551 9.24898C124.502 9.26899 124.46 9.30492 124.43 9.35187C124.4 9.39882 124.385 9.4545 124.386 9.51135V12.8451C124.386 12.9184 124.359 12.9887 124.311 13.0406C124.263 13.0925 124.198 13.1216 124.131 13.1216H122.694C122.66 13.1232 122.625 13.1172 122.593 13.104C122.561 13.0907 122.532 13.0705 122.508 13.0447C122.483 13.0188 122.464 12.9877 122.451 12.9534C122.438 12.9191 122.431 12.8822 122.432 12.8451Z" fill="#1D1D1B"/>
<path d="M131.954 12.8563V4.44874C131.954 4.40949 131.961 4.37063 131.975 4.33442C131.988 4.29821 132.008 4.26536 132.033 4.23779C132.058 4.21021 132.088 4.18847 132.12 4.1738C132.153 4.15914 132.188 4.15185 132.223 4.15237H133.504C133.574 4.15237 133.641 4.1836 133.691 4.23918C133.741 4.29476 133.769 4.37014 133.769 4.44874V7.60743C133.769 8.72273 133.769 9.64304 133.72 10.3684H133.755C134.093 9.73141 134.463 9.11684 134.865 8.52775L137.691 4.27326C137.716 4.23538 137.749 4.20466 137.786 4.18364C137.824 4.16262 137.866 4.1519 137.908 4.15237H139.167C139.203 4.15185 139.237 4.15914 139.27 4.1738C139.303 4.18847 139.332 4.21021 139.357 4.23779C139.382 4.26536 139.402 4.29821 139.416 4.33442C139.429 4.37063 139.436 4.40949 139.436 4.44874V12.8563C139.436 12.8956 139.429 12.9344 139.416 12.9707C139.402 13.0069 139.382 13.0397 139.357 13.0673C139.332 13.0949 139.303 13.1166 139.27 13.1313C139.237 13.1459 139.203 13.1532 139.167 13.1527H137.887C137.816 13.1527 137.749 13.1215 137.699 13.0659C137.649 13.0103 137.621 12.9349 137.621 12.8563V9.71713C137.621 8.60184 137.638 7.67503 137.67 6.9367H137.639C137.457 7.30067 137.088 7.9142 136.529 8.77732L133.699 13.0318C133.674 13.0702 133.642 13.1012 133.604 13.1223C133.567 13.1434 133.525 13.1538 133.483 13.1527H132.223C132.188 13.1532 132.153 13.1459 132.12 13.1313C132.088 13.1166 132.058 13.0949 132.033 13.0673C132.008 13.0397 131.988 13.0069 131.975 12.9707C131.961 12.9344 131.954 12.8956 131.954 12.8563Z" fill="#1D1D1B"/>
<path d="M67.2751 21.251C65.2989 21.5784 64.1837 22.5425 63.9295 24.1432H63.9834C64.2943 23.7782 64.6765 23.4932 65.1022 23.309C65.5554 23.0914 66.0455 22.9786 66.5412 22.9777C67.105 22.954 67.6671 23.0606 68.19 23.2904C68.7129 23.5203 69.1846 23.8681 69.5738 24.3108C70.3597 25.2333 70.7774 26.4549 70.7358 27.7096C70.7473 28.3423 70.6412 28.9711 70.4236 29.5584C70.2061 30.1457 69.8816 30.6795 69.4695 31.1279C69.0602 31.589 68.5666 31.9524 68.0202 32.1947C67.4738 32.437 66.8867 32.5529 66.2966 32.535C65.6995 32.5596 65.1048 32.4422 64.5541 32.191C64.0035 31.9398 63.5103 31.561 63.1093 31.0812C62.301 30.1093 61.8969 28.7477 61.8969 26.9963C61.8878 26.0798 61.971 25.1649 62.1451 24.2679C62.2801 23.5615 62.5117 22.881 62.8322 22.2488C63.1094 21.7144 63.4753 21.24 63.9115 20.8496C64.3261 20.4716 64.7936 20.1677 65.2965 19.9492C65.8362 19.7209 66.397 19.5562 66.9693 19.458C67.6721 19.3296 68.3519 19.0823 68.9838 18.7253C69.0149 18.7072 69.049 18.6961 69.0841 18.6926C69.1192 18.6891 69.1545 18.6933 69.1881 18.7049C69.2217 18.7166 69.2527 18.7354 69.2794 18.7603C69.3062 18.7853 69.328 18.8158 69.3436 18.85L69.8868 20.0544C69.903 20.0882 69.9128 20.1251 69.9158 20.163C69.9187 20.2009 69.9148 20.239 69.9041 20.2752C69.8934 20.3115 69.8762 20.345 69.8534 20.374C69.8307 20.403 69.8029 20.4269 69.7717 20.4442C68.9886 20.8671 68.144 21.1401 67.2751 21.251ZM63.8251 27.7096C63.8005 28.4887 64.0588 29.2472 64.5446 29.8222C64.7657 30.0897 65.0371 30.3029 65.3405 30.4474C65.6439 30.592 65.9723 30.6645 66.3037 30.6602C66.6388 30.6719 66.972 30.6027 67.2793 30.4578C67.5866 30.3129 67.8604 30.0958 68.0809 29.8222C68.5471 29.237 68.7914 28.4821 68.7644 27.7096C68.7865 26.9509 68.5525 26.2094 68.1061 25.6243C67.8903 25.3474 67.619 25.1276 67.3129 24.9817C67.0068 24.8358 66.6739 24.7676 66.3397 24.7824C66.0021 24.7727 65.6666 24.8422 65.3561 24.9862C65.0456 25.1302 64.7676 25.3452 64.541 25.6165C64.0622 26.1881 63.8058 26.938 63.8251 27.7096Z" fill="#1D1D1B"/>
<path d="M80.9429 23.3979V31.9308C80.9429 32.0064 80.9156 32.0789 80.8667 32.1327C80.8179 32.1865 80.7515 32.2172 80.6819 32.2182H79.3006C79.231 32.2172 79.1646 32.1865 79.1158 32.1327C79.0669 32.0789 79.0395 32.0064 79.0395 31.9308V31.0606H78.9851C78.6481 31.5338 78.2131 31.9141 77.7155 32.1706C77.2179 32.4272 76.6716 32.5527 76.121 32.5372C75.6004 32.5339 75.0857 32.4173 74.6075 32.1941C74.1292 31.9709 73.697 31.6457 73.3366 31.2378C72.5148 30.3767 72.1039 29.1849 72.1039 27.6624C72.0812 27.0258 72.1763 26.3908 72.3837 25.7949C72.5911 25.199 72.9065 24.6544 73.3112 24.1933C73.689 23.7571 74.1468 23.4118 74.6552 23.1798C75.1636 22.9479 75.7111 22.8343 76.2624 22.8466C76.7982 22.8385 77.3279 22.9723 77.8054 23.2365C78.283 23.5006 78.6941 23.8871 79.0033 24.3626H79.0395V23.4136C79.0395 23.3384 79.067 23.2663 79.116 23.2132C79.1649 23.16 79.2313 23.1301 79.3006 23.1301H80.6819C80.7487 23.13 80.813 23.1577 80.8615 23.2075C80.9101 23.2573 80.9392 23.3254 80.9429 23.3979ZM74.1124 27.6466C74.0956 28.4169 74.3278 29.1693 74.7686 29.773C74.9949 30.0716 75.283 30.3078 75.6094 30.4625C75.9358 30.6172 76.2912 30.6858 76.6467 30.6629C76.9745 30.6631 77.2986 30.5882 77.5979 30.443C77.8971 30.2978 78.1648 30.0855 78.3833 29.8202C78.6267 29.5372 78.8161 29.2046 78.9405 28.8417C79.065 28.4788 79.122 28.0927 79.1084 27.7057C79.1406 26.9008 78.8876 26.1131 78.4014 25.5045C78.1847 25.2308 77.9151 25.0124 77.6118 24.8647C77.3085 24.717 76.979 24.6437 76.6467 24.65C76.2898 24.6287 75.9332 24.698 75.6053 24.8525C75.2774 25.0069 74.9872 25.2423 74.7578 25.54C74.3221 26.1384 74.0937 26.884 74.1124 27.6466Z" fill="#1D1D1B"/>
<path d="M82.9834 35.6668V23.4458C82.9844 23.3581 83.0188 23.2742 83.0792 23.2125C83.1396 23.1508 83.2211 23.1162 83.3061 23.1162H84.5677C84.6523 23.1162 84.7335 23.151 84.7933 23.2128C84.8531 23.2746 84.8867 23.3584 84.8867 23.4458V24.2174H84.9411C85.2895 23.7781 85.73 23.4264 86.2294 23.1889C86.7287 22.9514 87.2737 22.8344 87.8233 22.8466C88.3565 22.8399 88.8848 22.9514 89.3726 23.1737C89.8604 23.3959 90.2964 23.7237 90.6511 24.135C91.4489 25.0433 91.8694 26.239 91.8222 27.4645C91.8629 28.6859 91.4326 29.8741 90.6258 30.7679C90.2581 31.183 89.8097 31.5131 89.3098 31.7364C88.8099 31.9597 88.27 32.0713 87.7254 32.0638C87.1948 32.0801 86.668 31.966 86.1884 31.731C85.7087 31.4959 85.29 31.1466 84.9665 30.7117H84.9121V35.6668C84.9121 35.7545 84.8786 35.8387 84.8189 35.9012C84.7592 35.9636 84.678 35.9991 84.5931 36.0001H83.3133C83.2703 36.0011 83.2276 35.9932 83.1876 35.9769C83.1476 35.9606 83.1112 35.9362 83.0805 35.9052C83.0497 35.8741 83.0253 35.837 83.0086 35.7961C82.992 35.7551 82.9834 35.7112 82.9834 35.6668ZM89.8137 27.4271C89.8317 26.6987 89.5963 25.9877 89.1502 25.4233C88.9208 25.1463 88.6328 24.9275 88.3084 24.7839C87.984 24.6404 87.6319 24.576 87.2795 24.5956C86.736 24.59 86.2076 24.7808 85.7858 25.135C85.2127 25.6913 84.8679 26.4535 84.8227 27.2647C84.7775 28.0758 85.0353 28.8739 85.5429 29.4945C85.7627 29.7502 86.0332 29.9541 86.3359 30.0924C86.6387 30.2307 86.9666 30.3001 87.2976 30.296C87.6501 30.3144 88.0017 30.2463 88.3237 30.0972C88.6457 29.9481 88.929 29.7223 89.1502 29.4383C89.5886 28.8739 89.8232 28.1694 89.8137 27.4458V27.4271Z" fill="#1D1D1B"/>
<path d="M102.026 23.4648V31.8796C102.026 31.9687 101.994 32.0543 101.936 32.1177C101.878 32.1811 101.799 32.2172 101.717 32.2182H100.443C100.36 32.2172 100.282 32.1811 100.224 32.1177C100.166 32.0543 100.134 31.9687 100.134 31.8796V31.0606H100.079C99.7419 31.5338 99.3062 31.9141 98.8078 32.1706C98.3093 32.4272 97.7621 32.5527 97.2106 32.5372C96.6892 32.5339 96.1737 32.4173 95.6946 32.1941C95.2155 31.9709 94.7827 31.6457 94.4216 31.2378C93.6009 30.3767 93.1893 29.1849 93.1869 27.6624C93.1641 27.0258 93.2595 26.3908 93.4672 25.7949C93.6749 25.199 93.9908 24.6544 94.3962 24.1933C94.7746 23.7571 95.2332 23.4118 95.7424 23.1798C96.2516 22.9479 96.8 22.8343 97.3522 22.8466C97.889 22.8385 98.4195 22.9723 98.8978 23.2365C99.3762 23.5006 99.788 23.8871 100.098 24.3626H100.134V23.4648C100.134 23.376 100.166 23.2909 100.224 23.2281C100.282 23.1654 100.361 23.1301 100.443 23.1301H101.732C101.811 23.1342 101.886 23.1712 101.941 23.2335C101.996 23.2959 102.026 23.3787 102.026 23.4648ZM95.1842 27.6624C95.1673 28.4327 95.3999 29.185 95.8415 29.7887C96.0682 30.0873 96.3567 30.3236 96.6837 30.4783C97.0106 30.6329 97.3666 30.7016 97.7226 30.6786C98.051 30.6791 98.3757 30.6043 98.6755 30.4591C98.9753 30.3139 99.2434 30.1015 99.4621 29.836C99.7092 29.5545 99.9022 29.2227 100.03 28.8597C100.158 28.4967 100.218 28.1098 100.207 27.7214C100.234 26.9139 99.9738 26.1258 99.4803 25.5203C99.2633 25.2464 98.9933 25.0278 98.6895 24.8801C98.3857 24.7324 98.0555 24.6592 97.7226 24.6658C97.3652 24.6444 97.008 24.7137 96.6796 24.8682C96.3511 25.0227 96.0605 25.2581 95.8306 25.5557C95.3942 26.1541 95.1654 26.8997 95.1842 27.6624Z" fill="#1D1D1B"/>
<path d="M112.231 23.8362V31.5539C112.231 31.6322 112.198 31.7073 112.139 31.7627C112.08 31.818 112.001 31.8491 111.918 31.8491H110.49C110.407 31.8491 110.328 31.818 110.269 31.7627C110.211 31.7073 110.178 31.6322 110.178 31.5539V28.6238C110.178 28.5452 110.145 28.4697 110.086 28.4138C110.028 28.3578 109.948 28.326 109.865 28.325H106.437C106.354 28.326 106.275 28.3578 106.216 28.4138C106.158 28.4697 106.125 28.5452 106.125 28.6238V31.5539C106.125 31.6322 106.092 31.7073 106.034 31.7627C105.975 31.818 105.896 31.8491 105.813 31.8491H104.381C104.298 31.8491 104.218 31.818 104.16 31.7627C104.101 31.7073 104.068 31.6322 104.068 31.5539V23.8362C104.068 23.7579 104.101 23.6828 104.16 23.6275C104.218 23.5721 104.298 23.541 104.381 23.541H105.813C105.896 23.541 105.975 23.5721 106.034 23.6275C106.092 23.6828 106.125 23.7579 106.125 23.8362V26.4028C106.125 26.4811 106.158 26.5561 106.217 26.6115C106.275 26.6668 106.355 26.6979 106.437 26.6979H109.865C109.948 26.6979 110.028 26.6668 110.086 26.6115C110.145 26.5561 110.178 26.4811 110.178 26.4028V23.8362C110.178 23.7579 110.211 23.6828 110.269 23.6275C110.328 23.5721 110.407 23.541 110.49 23.541H111.918C112.001 23.541 112.08 23.5721 112.139 23.6275C112.198 23.6828 112.231 23.7579 112.231 23.8362Z" fill="#1D1D1B"/>
<path d="M113.59 27.7037C113.573 27.067 113.685 26.4335 113.92 25.8429C114.155 25.2523 114.507 24.7173 114.954 24.2714C115.849 23.36 117.063 22.8472 118.33 22.8457C119.597 22.8442 120.812 23.3543 121.709 24.2635C122.605 25.1728 123.11 26.4069 123.111 27.6943C123.113 28.9817 122.611 30.217 121.716 31.1283C120.815 32.0287 119.603 32.5348 118.339 32.5385C117.076 32.5421 115.861 32.043 114.954 31.1478C114.508 30.6985 114.157 30.1612 113.923 29.5689C113.688 28.9767 113.575 28.342 113.59 27.7037ZM116.426 25.599C115.931 26.1822 115.673 26.9345 115.704 27.7037C115.676 28.4845 115.952 29.245 116.472 29.8202C116.712 30.0848 117.003 30.296 117.327 30.4404C117.651 30.5849 118.001 30.6595 118.355 30.6595C118.708 30.6595 119.058 30.5849 119.382 30.4404C119.706 30.296 119.997 30.0848 120.237 29.8202C120.742 29.2371 121.007 28.4797 120.979 27.7037C121 26.9406 120.743 26.1963 120.256 25.6146C120.009 25.349 119.711 25.1374 119.381 24.9927C119.051 24.8481 118.695 24.7735 118.335 24.7735C117.976 24.7735 117.62 24.8481 117.289 24.9927C116.959 25.1374 116.661 25.349 116.414 25.6146L116.426 25.599Z" fill="#1D1D1B"/>
<path d="M131.954 23.7462V31.6439C131.954 31.6983 131.932 31.7505 131.893 31.789C131.854 31.8275 131.801 31.8491 131.746 31.8491H130.184C130.129 31.8482 130.076 31.8263 130.037 31.788C129.998 31.7497 129.976 31.6981 129.975 31.6439V27.875H129.942C129.699 28.2872 129.348 28.6273 128.924 28.8593C128.501 29.0912 128.022 29.2064 127.537 29.1925C127.124 29.2035 126.714 29.1265 126.334 28.9668C125.954 28.8071 125.614 28.5685 125.338 28.2674C124.761 27.6483 124.473 26.7195 124.473 25.4812V23.7462C124.473 23.6918 124.495 23.6396 124.534 23.6011C124.573 23.5626 124.626 23.541 124.681 23.541H126.243C126.299 23.541 126.352 23.5626 126.391 23.6011C126.43 23.6396 126.452 23.6918 126.452 23.7462V25.3625C126.416 25.9135 126.571 26.4603 126.892 26.9139C127.036 27.0939 127.223 27.2375 127.435 27.3327C127.647 27.4278 127.88 27.4719 128.113 27.4611C128.373 27.4719 128.633 27.4226 128.87 27.3169C129.108 27.2112 129.317 27.0522 129.48 26.8527C129.849 26.3429 130.026 25.7235 129.982 25.0997V23.7462C129.982 23.6918 130.004 23.6396 130.043 23.6011C130.083 23.5626 130.136 23.541 130.191 23.541H131.753C131.78 23.5415 131.806 23.5472 131.831 23.5577C131.856 23.5683 131.878 23.5835 131.897 23.6026C131.916 23.6216 131.93 23.6441 131.94 23.6688C131.95 23.6934 131.955 23.7197 131.954 23.7462Z" fill="#1D1D1B"/>
<path d="M133.996 31.6475V23.7499C133.996 23.6955 134.017 23.6433 134.056 23.6048C134.094 23.5663 134.145 23.5447 134.199 23.5447H135.717C135.771 23.5447 135.823 23.5663 135.861 23.6048C135.899 23.6433 135.92 23.6955 135.92 23.7499V26.7088C135.918 26.7518 135.929 26.7944 135.952 26.8306C135.975 26.8668 136.009 26.8946 136.049 26.9098C136.088 26.9251 136.132 26.9271 136.173 26.9156C136.214 26.904 136.25 26.8795 136.277 26.8456L139.302 23.6059C139.32 23.5848 139.343 23.568 139.368 23.5568C139.393 23.5456 139.421 23.5402 139.448 23.5411H141.141C141.181 23.5398 141.22 23.5505 141.254 23.5719C141.287 23.5933 141.314 23.6243 141.33 23.6611C141.346 23.6978 141.351 23.7386 141.344 23.7782C141.337 23.8177 141.318 23.8543 141.291 23.8831L138.062 27.3424C138.029 27.38 138.01 27.4287 138.01 27.4791C138.01 27.5296 138.029 27.5783 138.062 27.6159L141.429 31.5107C141.455 31.5405 141.471 31.5768 141.476 31.6156C141.481 31.6543 141.476 31.6937 141.46 31.7293C141.444 31.7648 141.418 31.795 141.385 31.8162C141.353 31.8375 141.315 31.8489 141.276 31.8491H139.477C139.448 31.8483 139.419 31.8414 139.393 31.8291C139.366 31.8167 139.343 31.799 139.323 31.7771L136.287 28.2063C136.261 28.1727 136.225 28.1483 136.185 28.1367C136.144 28.1251 136.101 28.1269 136.061 28.1417C136.022 28.1565 135.988 28.1836 135.964 28.2192C135.941 28.2547 135.929 28.2968 135.931 28.3395V31.6439C135.93 31.6981 135.908 31.7497 135.871 31.788C135.833 31.8263 135.782 31.8482 135.728 31.8491H134.199C134.146 31.8482 134.096 31.8268 134.058 31.7893C134.02 31.7518 133.998 31.701 133.996 31.6475Z" fill="#1D1D1B"/>
<path d="M143.519 31.5467V23.7498C143.518 23.7227 143.523 23.6959 143.533 23.6707C143.543 23.6456 143.557 23.6228 143.576 23.6037C143.594 23.5845 143.616 23.5694 143.641 23.5593C143.665 23.5491 143.691 23.5442 143.718 23.5446H145.138C145.164 23.5446 145.189 23.55 145.213 23.5603C145.237 23.5707 145.259 23.5859 145.277 23.605C145.295 23.6241 145.31 23.6467 145.319 23.6716C145.329 23.6965 145.334 23.7231 145.333 23.7498V26.734C145.333 27.7635 145.317 28.6142 145.284 29.2861H145.316C145.656 28.6985 146.026 28.1302 146.426 27.5835L149.277 23.6238C149.295 23.5978 149.319 23.5767 149.347 23.5623C149.375 23.5479 149.406 23.5406 149.437 23.541H150.802C150.828 23.5406 150.854 23.5455 150.878 23.5557C150.903 23.5658 150.925 23.5809 150.943 23.6001C150.962 23.6192 150.977 23.642 150.986 23.6671C150.996 23.6922 151.001 23.7191 151.001 23.7462V31.6439C151.001 31.6983 150.98 31.7505 150.942 31.789C150.905 31.8275 150.854 31.8491 150.802 31.8491H149.381C149.329 31.8482 149.279 31.8261 149.243 31.7878C149.206 31.7494 149.186 31.6977 149.186 31.6439V28.6742C149.186 27.6447 149.202 26.7892 149.235 26.1076H149.203C149.022 26.4412 148.652 27.0075 148.094 27.8067L145.27 31.7231C145.243 31.762 145.208 31.7937 145.166 31.8156C145.125 31.8375 145.08 31.849 145.033 31.8491H143.815C143.737 31.8491 143.662 31.8174 143.607 31.7608C143.551 31.7042 143.52 31.6273 143.519 31.5467Z" fill="#1D1D1B"/>
</svg>
