<svg width="72" height="72" viewBox="0 0 72 72" fill="none" xmlns="http://www.w3.org/2000/svg">
<g clip-path="url(#clip0_14337_48704)">
<path d="M44.6242 31.5923C44.6242 36.3398 40.7499 40.214 36.0024 40.214C31.2507 40.214 27.3765 36.3398 27.3765 31.5923C27.3765 26.8405 31.2507 22.9663 36.0024 22.9663C40.7499 22.9663 44.6242 26.8405 44.6242 31.5923ZM58.9553 28.2566C56.4437 26.7899 53.191 27.6421 51.7243 30.1537L43.246 44.6718C42.8396 45.3693 42.0381 45.697 41.2562 45.4846C37.5929 44.4918 34.4078 44.4918 30.7445 45.4846C29.9626 45.6955 29.1624 45.3693 28.756 44.6718L20.2778 30.1537C18.811 27.6421 15.5584 26.7899 13.0468 28.2566C10.5353 29.7234 9.67885 32.976 11.1456 35.4876L23.6429 56.8851C23.8103 57.1677 23.8862 57.4476 23.8862 57.7738V70.2304C23.8862 71.2035 24.6793 72.0009 25.6567 72.0009H46.3496C47.3256 72.0009 48.1201 71.2035 48.1201 70.2304V57.7738C48.1201 57.4476 48.196 57.1677 48.3634 56.8851L60.8607 35.4876C62.319 32.976 61.4668 29.7234 58.9553 28.2566ZM27.2724 7.63961L31.2353 10.5013C31.5699 10.7446 31.7049 11.1595 31.5742 11.5532L30.0554 16.1966C29.9274 16.5918 30.0596 17.0052 30.3943 17.2485C30.729 17.4918 31.1635 17.4918 31.4982 17.2485L35.4484 14.3671C35.7831 14.1238 36.2176 14.1238 36.5523 14.3671L40.5024 17.2485C40.8329 17.4918 41.2717 17.4918 41.6064 17.2485C41.941 17.0052 42.0732 16.5904 41.9453 16.1966L40.4265 11.5532C40.2943 11.158 40.4307 10.7446 40.7654 10.5013L44.7282 7.63961C45.0629 7.39633 45.1979 6.98148 45.0671 6.58773C44.9392 6.1968 44.589 5.94226 44.1742 5.94226L39.2874 5.9507C38.8726 5.9507 38.5224 5.69617 38.3945 5.30101L36.8912 0.647734C36.7632 0.256797 36.4131 -0.00195312 35.9982 -0.00195312C35.5876 -0.00195312 35.2332 0.256797 35.1095 0.647734L33.6062 5.29961C33.4782 5.69476 33.1281 5.9493 32.7132 5.9493L27.8265 5.94086C27.4117 5.94086 27.0615 6.19539 26.9293 6.58633C26.8028 6.98148 26.9378 7.39633 27.2724 7.63961ZM44.6087 20.8612C45.1107 21.2563 45.8364 21.172 46.2357 20.6699L50.7962 14.9141C51.1914 14.4121 51.1028 13.6865 50.6049 13.2913C50.1029 12.8934 49.3773 12.9805 48.9779 13.4784L44.4174 19.2384C44.0223 19.7376 44.1067 20.4674 44.6087 20.8612ZM47.4943 24.2109C47.8178 24.7607 48.5223 24.9519 49.0764 24.6299L55.4382 20.9582C55.9923 20.639 56.1793 19.9302 55.8601 19.3762C55.5367 18.8221 54.8279 18.6351 54.2781 18.9543L47.9162 22.626C47.3635 22.9466 47.1765 23.6568 47.4943 24.2109ZM25.7664 20.6699C26.1643 21.172 26.8899 21.2563 27.3934 20.8612C27.8912 20.466 27.9798 19.7376 27.5846 19.2384L23.0242 13.4784C22.6262 12.9805 21.9006 12.892 21.3971 13.2913C20.8993 13.6865 20.8107 14.4121 21.2059 14.9141L25.7664 20.6699ZM16.561 20.9568L22.9229 24.6285C23.4728 24.952 24.1829 24.7607 24.5049 24.2094C24.8242 23.6554 24.6371 22.9452 24.0831 22.6232L17.7212 18.9515C17.1671 18.6323 16.4612 18.8193 16.1392 19.3734C15.8199 19.9288 16.007 20.639 16.561 20.9568Z" fill="#E52729"/>
</g>
<defs>
<clipPath id="clip0_14337_48704">
<rect width="72" height="72" fill="white"/>
</clipPath>
</defs>
</svg>
