<svg width="72" height="72" viewBox="0 0 72 72" fill="none" xmlns="http://www.w3.org/2000/svg">
<path d="M67.7586 23.6648L54.3385 4.16475C54.1095 3.83205 53.8031 3.56001 53.4456 3.37207C53.0881 3.18414 52.6903 3.08594 52.2864 3.08594C51.8825 3.08594 51.4847 3.18414 51.1272 3.37207C50.7697 3.56001 50.4633 3.83205 50.2343 4.16475L36.8142 23.6648C36.6855 23.8518 36.6104 24.0704 36.5969 24.297C36.5835 24.5236 36.6322 24.7496 36.7378 24.9505C36.8434 25.1514 37.002 25.3197 37.1963 25.437C37.3906 25.5544 37.6133 25.6164 37.8403 25.6164H41.9482C42.6088 25.6164 43.2425 25.8789 43.7096 26.3461C44.1768 26.8132 44.4392 27.4468 44.4392 28.1075V65.9512C44.4392 66.6119 44.7017 67.2455 45.1689 67.7127C45.636 68.1798 46.2697 68.4423 46.9303 68.4423H57.6425C58.3032 68.4423 58.9368 68.1798 59.4039 67.7127C59.8711 67.2455 60.1336 66.6119 60.1336 65.9512V28.1075C60.1336 27.4468 60.396 26.8132 60.8632 26.3461C61.3304 25.8789 61.964 25.6164 62.6246 25.6164H66.7326C66.9596 25.6164 67.1822 25.5544 67.3765 25.437C67.5708 25.3196 67.7294 25.1514 67.835 24.9505C67.9406 24.7495 67.9894 24.5236 67.9759 24.297C67.9624 24.0704 67.8873 23.8518 67.7586 23.6648Z" fill="#E52729"/>
<path d="M33.1072 31.0762H25.372C24.0687 31.0762 23.0122 32.1327 23.0122 33.4359V66.0831C23.0122 67.3864 24.0687 68.4429 25.372 68.4429H33.1072C34.4105 68.4429 35.467 67.3864 35.467 66.0831V33.4359C35.467 32.1327 34.4105 31.0762 33.1072 31.0762Z" fill="#E52729"/>
<path d="M13.1807 41.041H5.44545C4.14219 41.041 3.08569 42.0975 3.08569 43.4008V66.0827C3.08569 67.386 4.14219 68.4425 5.44545 68.4425H13.1807C14.484 68.4425 15.5405 67.386 15.5405 66.0827V43.4008C15.5405 42.0975 14.484 41.041 13.1807 41.041Z" fill="#E52729"/>
</svg>
