<svg width="72" height="72" viewBox="0 0 72 72" fill="none" xmlns="http://www.w3.org/2000/svg">
<path d="M36 0C29.0103 0 23.3438 5.80699 23.3438 12.7969C23.3438 19.7869 29.0101 25.4532 36 25.4532C42.99 25.4532 48.6563 19.7869 48.6563 12.7969C48.6563 5.80699 42.9898 0 36 0Z" fill="#E52729"/>
<path d="M45.4297 43.5236C39.9316 43.5236 38.0509 50.0845 38.0323 50.1504C38.0267 50.1705 38.0053 50.1795 37.9991 50.1994C37.9991 50.1991 37.9997 50.1991 37.9997 50.1988C37.7276 51.0791 36.9304 51.6891 36.0054 51.6932C36.0032 51.6932 36.0013 51.6932 35.9971 51.6932C35.0557 51.6932 34.2276 51.0649 33.968 50.1586C33.8918 49.8866 32.0151 43.5234 26.5687 43.5234C22.3932 43.5234 19.2456 47.0171 19.2456 51.652C19.2456 57.1686 24.2204 62.7052 32.4643 69.6636C33.168 70.2566 33.8916 70.8674 34.6337 71.4979C35.4201 72.1659 36.576 72.1679 37.3627 71.5002C38.1042 70.8706 38.8266 70.2611 39.5279 69.6676C45.7996 64.3768 52.7527 57.5752 52.7527 51.6517C52.7527 47.0173 49.6053 43.5236 45.4297 43.5236Z" fill="#E52729"/>
<path d="M46.7577 25.6641C43.8468 28.1533 40.1343 29.6719 35.9999 29.6719C31.8655 29.6719 28.153 28.1531 25.242 25.6641C13.4295 26.8452 4.35913 36.7733 4.35913 48.797V51.7501C4.35913 58.5845 7.01695 64.9969 11.8265 69.8063C11.8265 69.8485 11.8265 69.8485 11.8687 69.8485C13.1765 71.1563 14.9906 71.9157 16.8468 71.9579C19.9313 71.8806 22.4264 69.5405 22.8373 66.5307C18.9052 62.4909 15.0275 57.3145 15.0275 51.6519C15.0275 44.446 20.533 39.3046 26.5498 39.3046C26.5539 39.3046 26.557 39.3053 26.5612 39.3053C26.5641 39.3053 26.5666 39.3046 26.5695 39.3046C30.5398 39.3046 33.8572 41.4884 36.002 44.6831C38.1668 41.458 41.3941 39.3046 45.4304 39.3046C45.4332 39.3046 45.4357 39.3053 45.4387 39.3053C45.4427 39.3053 45.4458 39.3046 45.4501 39.3046C51.8418 39.3046 56.9724 44.7872 56.9724 51.6519C56.7735 52.1862 57.8282 57.3881 49.157 66.474C49.5442 69.5107 52.0493 71.8801 55.1532 71.9579C57.0095 71.9157 58.8236 71.1563 60.1314 69.8485C60.1736 69.8485 60.1736 69.8485 60.1736 69.8063C64.9828 64.9969 67.6406 58.5845 67.6406 51.7501V48.797C67.6406 36.7733 58.5701 26.8452 46.7577 25.6641Z" fill="#E52729"/>
</svg>
